<svg width="395" height="397" viewBox="0 0 395 397" fill="none" xmlns="http://www.w3.org/2000/svg">
<path d="M175.682 271.786H144.711L212.551 120.936H243.311L330.324 314.344C323.173 324.106 318.235 328.518 308.202 334.991L227.931 153.592L175.682 271.786Z" fill="#1C2C3C"/>
<path d="M69.1602 300.867L73.0376 279.551H78.0502L74.2233 300.867H69.1602ZM89.7819 279.551L85.88 300.806L85.9045 300.867H82.8904C82.2824 300.867 81.8214 300.715 81.5079 300.411C81.1426 300.015 80.8847 299.533 80.7587 299.01L77.5239 288.107L78.981 279.734C79.2722 279.852 79.5212 280.053 79.6965 280.313C79.9076 280.642 80.0664 281.002 80.1667 281.379L82.7893 290.271L84.7167 279.551H89.7819Z" fill="#1C2C3C"/>
<path d="M108.522 279.551H113.56L110.449 296.08L109.955 298.728C109.872 299.294 109.666 299.835 109.35 300.311C109.077 300.677 108.637 300.86 108.029 300.86L94.2726 300.89C93.879 300.914 93.4863 300.829 93.1374 300.647C92.8724 300.484 92.7409 300.159 92.7422 299.672C92.7468 299.468 92.7713 299.264 92.8151 299.063L93.3582 296.11L105.41 296.08L108.522 279.551ZM96.4212 279.551H101.434L98.5693 295.021H93.5306L96.4212 279.551Z" fill="#1C2C3C"/>
<path d="M119.486 284.515L120.35 279.551H137.77L137.208 282.719C137.076 283.43 136.834 283.917 136.459 284.179C136.054 284.456 135.566 284.585 135.077 284.545L119.486 284.515ZM128.032 300.867H122.974L125.707 285.642H130.722L128.032 300.867Z" fill="#1C2C3C"/>
<path d="M159.666 279.553C160.285 279.542 160.904 279.573 161.519 279.645C161.862 279.673 162.185 279.819 162.433 280.057C162.63 280.269 162.729 280.6 162.729 281.046C162.709 281.558 162.647 282.068 162.542 282.569L161.553 287.866L160.876 291.399C160.745 292.111 160.496 292.598 160.127 292.86C159.722 293.138 159.235 293.271 158.745 293.235L148.255 293.203L148.898 289.702C149.029 288.992 149.272 288.503 149.647 288.239C150.052 287.961 150.539 287.829 151.03 287.864H157.055L157.795 283.998L148.832 283.968L145.794 300.868H140.736L144.614 279.551H159.678L159.666 279.553ZM152.431 294.139H157.593L158.529 300.869H154.802C154.225 300.869 153.815 300.682 153.567 300.291C153.283 299.786 153.114 299.224 153.073 298.646L152.431 294.139Z" fill="#1C2C3C"/>
<path d="M170.733 300.867H165.676L169.542 279.551H174.562L170.733 300.867Z" fill="#1C2C3C"/>
<path d="M180.488 284.515L181.352 279.551H198.772L198.21 282.719C198.077 283.43 197.827 283.917 197.461 284.179C197.056 284.455 196.568 284.584 196.078 284.545L180.488 284.515ZM189.032 300.867H183.965L186.707 285.642H191.72L189.032 300.867Z" fill="#1C2C3C"/>
<path d="M206.784 300.867H201.727L205.604 279.551H210.617L206.784 300.867Z" fill="#1C2C3C"/>
<path d="M232.812 279.517C233.206 279.495 233.599 279.579 233.95 279.761C234.212 279.924 234.345 280.248 234.345 280.735C234.34 280.94 234.315 281.145 234.27 281.346L233.727 284.298L231.653 295.514L230.986 299.045C230.853 299.757 230.612 300.244 230.237 300.508C229.832 300.784 229.344 300.913 228.855 300.873L219.766 300.843L220.409 297.34C220.54 296.63 220.79 296.143 221.158 295.879C221.565 295.601 222.056 295.472 222.548 295.514H226.646L228.707 284.307L221.692 284.339L218.655 300.873H213.598L216.66 284.339L217.153 281.688C217.236 281.123 217.443 280.583 217.758 280.106C218.031 279.739 218.472 279.556 219.081 279.556L232.812 279.517Z" fill="#1C2C3C"/>
<path d="M237.307 300.867L241.184 279.551H246.197L242.37 300.867H237.307ZM257.928 279.551L254.027 300.806L254.051 300.867H251.037C250.428 300.867 249.968 300.715 249.654 300.411C249.289 300.015 249.031 299.533 248.905 299.01L245.67 288.107L247.127 279.734C247.418 279.852 247.668 280.053 247.843 280.313C248.054 280.642 248.213 281.002 248.313 281.379L250.936 290.271L252.861 279.551H257.928Z" fill="#1C2C3C"/>
<path d="M25.2832 101.07C39.6034 75.4582 59.4532 53.3608 83.3882 36.3859C107.323 19.4108 134.741 7.98506 163.647 2.93985C192.554 -2.10535 222.221 -0.643053 250.491 7.22031C278.761 15.0837 304.923 29.1504 327.073 48.3971C349.223 67.6435 366.803 91.5857 378.535 118.482C390.267 145.378 395.856 174.551 394.895 203.878C393.934 233.206 386.446 261.95 372.978 288.02C359.51 314.09 340.399 336.83 317.037 354.584L308.199 334.988C329 319.179 341.759 301.299 353.75 278.087C365.742 254.875 372.408 229.282 373.264 203.169C374.12 177.057 369.144 151.082 358.698 127.134C348.252 103.187 332.599 81.8698 312.878 64.7331C293.156 47.5969 269.863 35.0722 244.692 28.0708C219.521 21.0695 193.106 19.7675 167.369 24.2596C141.631 28.7517 117.219 38.9249 95.9079 54.0388C74.5968 69.1529 64.2269 79.4279 49.2683 101.07H25.2832Z" fill="#1C2C3C"/>
<path d="M197.795 271.775L227.712 203.934L258.051 271.775H197.795Z" fill="#1C2C3C"/>
<mask id="mask0_1785_4730" style="mask-type:alpha" maskUnits="userSpaceOnUse" x="0" y="122" width="302" height="275">
<path d="M194.587 122.62H40.1553L23.0898 150.219H182.156L194.587 122.62Z" fill="#5200FF"/>
<path d="M82.2891 211.312V184.766H166.563L154.132 211.312H82.2891Z" fill="#5200FF"/>
<path d="M82.7148 273.467V245.657H139.178L126.537 273.467H82.7148Z" fill="#5200FF"/>
<path d="M301.193 365.952C264.892 388.635 224.004 399.457 181.359 395.766C138.714 392.075 98.424 374.622 66.561 346.04C34.6983 317.457 12.9888 279.293 4.70429 237.298C-3.58015 195.303 -1.77093 161.167 16.9797 122.626L40.1173 122.626C23.5376 156.942 18.5609 195.718 25.9372 233.109C33.3134 270.5 52.6428 304.481 81.0127 329.93C109.383 355.379 145.255 370.918 183.225 374.204C221.195 377.491 260.655 367.608 292.976 347.412L301.193 365.952Z" fill="#5200FF"/>
<path d="M95.2317 122.62H68.6855V273.469H95.2317V122.62Z" fill="#5200FF"/>
</mask>
<g mask="url(#mask0_1785_4730)">
<path d="M306 122.999H0V591.999H306V122.999Z" fill="url(#paint0_linear_1785_4730)"/>
</g>
<defs>
<linearGradient id="paint0_linear_1785_4730" x1="153" y1="122.999" x2="153" y2="591.999" gradientUnits="userSpaceOnUse">
<stop stop-color="#6303E2"/>
<stop offset="1" stop-color="#8B00A7"/>
</linearGradient>
</defs>
</svg>
